<mxfile host="app.diagrams.net" agent="Mozilla/5.0 (Windows NT 10.0; Win64; x64; rv:135.0) Gecko/20100101 Firefox/135.0" version="26.0.14">
  <diagram name="Page-1" id="h9f6BPegiMKrFkBrvIAH">
    <mxGraphModel dx="2074" dy="1152" grid="1" gridSize="10" guides="1" tooltips="1" connect="1" arrows="1" fold="1" page="1" pageScale="1" pageWidth="850" pageHeight="1100" math="0" shadow="0">
      <root>
        <mxCell id="0" />
        <mxCell id="1" parent="0" />
        <mxCell id="yPlz2IjZKpGIg6lIhMgq-1" value="" style="edgeStyle=orthogonalEdgeStyle;rounded=0;orthogonalLoop=1;jettySize=auto;html=1;" edge="1" source="yPlz2IjZKpGIg6lIhMgq-2" target="yPlz2IjZKpGIg6lIhMgq-4" parent="1">
          <mxGeometry relative="1" as="geometry" />
        </mxCell>
        <mxCell id="yPlz2IjZKpGIg6lIhMgq-2" value="main loop" style="shape=process;whiteSpace=wrap;html=1;backgroundOutline=1;rounded=1;strokeWidth=2;" vertex="1" parent="1">
          <mxGeometry x="280" y="332.5" width="120" height="60" as="geometry" />
        </mxCell>
        <mxCell id="yPlz2IjZKpGIg6lIhMgq-3" value="" style="edgeStyle=orthogonalEdgeStyle;rounded=0;orthogonalLoop=1;jettySize=auto;html=1;" edge="1" source="yPlz2IjZKpGIg6lIhMgq-4" target="yPlz2IjZKpGIg6lIhMgq-6" parent="1">
          <mxGeometry relative="1" as="geometry" />
        </mxCell>
        <mxCell id="yPlz2IjZKpGIg6lIhMgq-4" value="update display" style="rounded=1;whiteSpace=wrap;html=1;strokeWidth=2;" vertex="1" parent="1">
          <mxGeometry x="280" y="412.5" width="120" height="40" as="geometry" />
        </mxCell>
        <mxCell id="yPlz2IjZKpGIg6lIhMgq-5" value="" style="edgeStyle=orthogonalEdgeStyle;rounded=0;orthogonalLoop=1;jettySize=auto;html=1;" edge="1" source="yPlz2IjZKpGIg6lIhMgq-6" target="yPlz2IjZKpGIg6lIhMgq-8" parent="1">
          <mxGeometry relative="1" as="geometry" />
        </mxCell>
        <mxCell id="yPlz2IjZKpGIg6lIhMgq-6" value="get angleInput" style="shape=parallelogram;perimeter=parallelogramPerimeter;whiteSpace=wrap;html=1;fixedSize=1;rounded=1;strokeWidth=2;" vertex="1" parent="1">
          <mxGeometry x="280" y="482.5" width="120" height="60" as="geometry" />
        </mxCell>
        <mxCell id="yPlz2IjZKpGIg6lIhMgq-7" value="" style="edgeStyle=orthogonalEdgeStyle;rounded=0;orthogonalLoop=1;jettySize=auto;html=1;" edge="1" source="yPlz2IjZKpGIg6lIhMgq-8" target="yPlz2IjZKpGIg6lIhMgq-10" parent="1">
          <mxGeometry relative="1" as="geometry" />
        </mxCell>
        <mxCell id="yPlz2IjZKpGIg6lIhMgq-8" value="&lt;div&gt;set global var angle to angleInput/364 &lt;br&gt;&lt;/div&gt;&lt;div&gt;normalise to range 0-180&lt;/div&gt;" style="whiteSpace=wrap;html=1;rounded=1;strokeWidth=2;" vertex="1" parent="1">
          <mxGeometry x="280" y="562.5" width="120" height="60" as="geometry" />
        </mxCell>
        <mxCell id="yPlz2IjZKpGIg6lIhMgq-9" style="edgeStyle=orthogonalEdgeStyle;rounded=0;orthogonalLoop=1;jettySize=auto;html=1;entryX=1;entryY=0.5;entryDx=0;entryDy=0;" edge="1" source="yPlz2IjZKpGIg6lIhMgq-10" target="yPlz2IjZKpGIg6lIhMgq-2" parent="1">
          <mxGeometry relative="1" as="geometry">
            <Array as="points">
              <mxPoint x="420" y="732.5" />
              <mxPoint x="420" y="362.5" />
            </Array>
          </mxGeometry>
        </mxCell>
        <mxCell id="yPlz2IjZKpGIg6lIhMgq-10" value="options" style="shape=process;whiteSpace=wrap;html=1;backgroundOutline=1;rounded=1;strokeWidth=2;" vertex="1" parent="1">
          <mxGeometry x="280" y="702.5" width="120" height="60" as="geometry" />
        </mxCell>
        <mxCell id="yPlz2IjZKpGIg6lIhMgq-11" value="" style="edgeStyle=orthogonalEdgeStyle;rounded=0;orthogonalLoop=1;jettySize=auto;html=1;" edge="1" source="yPlz2IjZKpGIg6lIhMgq-51" target="yPlz2IjZKpGIg6lIhMgq-16" parent="1">
          <mxGeometry relative="1" as="geometry" />
        </mxCell>
        <mxCell id="yPlz2IjZKpGIg6lIhMgq-12" style="edgeStyle=orthogonalEdgeStyle;rounded=0;orthogonalLoop=1;jettySize=auto;html=1;" edge="1" source="yPlz2IjZKpGIg6lIhMgq-13" parent="1">
          <mxGeometry relative="1" as="geometry">
            <mxPoint x="945" y="647.5" as="targetPoint" />
            <Array as="points">
              <mxPoint x="1026" y="340.5" />
            </Array>
          </mxGeometry>
        </mxCell>
        <mxCell id="yPlz2IjZKpGIg6lIhMgq-13" value="Options" style="shape=process;whiteSpace=wrap;html=1;backgroundOutline=1;rounded=1;strokeWidth=2;" vertex="1" parent="1">
          <mxGeometry x="432" y="310" width="120" height="60" as="geometry" />
        </mxCell>
        <mxCell id="yPlz2IjZKpGIg6lIhMgq-14" value="no" style="edgeStyle=orthogonalEdgeStyle;rounded=0;orthogonalLoop=1;jettySize=auto;html=1;" edge="1" source="yPlz2IjZKpGIg6lIhMgq-16" target="yPlz2IjZKpGIg6lIhMgq-19" parent="1">
          <mxGeometry relative="1" as="geometry" />
        </mxCell>
        <mxCell id="yPlz2IjZKpGIg6lIhMgq-15" value="yes" style="edgeStyle=orthogonalEdgeStyle;rounded=0;orthogonalLoop=1;jettySize=auto;html=1;" edge="1" source="yPlz2IjZKpGIg6lIhMgq-16" target="yPlz2IjZKpGIg6lIhMgq-28" parent="1">
          <mxGeometry relative="1" as="geometry" />
        </mxCell>
        <mxCell id="yPlz2IjZKpGIg6lIhMgq-16" value="is LEVEL 1" style="rhombus;whiteSpace=wrap;html=1;rounded=1;strokeWidth=2;" vertex="1" parent="1">
          <mxGeometry x="452" y="477.5" width="80" height="80" as="geometry" />
        </mxCell>
        <mxCell id="yPlz2IjZKpGIg6lIhMgq-17" value="no" style="edgeStyle=orthogonalEdgeStyle;rounded=0;orthogonalLoop=1;jettySize=auto;html=1;" edge="1" source="yPlz2IjZKpGIg6lIhMgq-19" target="yPlz2IjZKpGIg6lIhMgq-22" parent="1">
          <mxGeometry relative="1" as="geometry" />
        </mxCell>
        <mxCell id="yPlz2IjZKpGIg6lIhMgq-18" value="" style="edgeStyle=orthogonalEdgeStyle;rounded=0;orthogonalLoop=1;jettySize=auto;html=1;" edge="1" source="yPlz2IjZKpGIg6lIhMgq-19" target="yPlz2IjZKpGIg6lIhMgq-40" parent="1">
          <mxGeometry relative="1" as="geometry" />
        </mxCell>
        <mxCell id="yPlz2IjZKpGIg6lIhMgq-19" value="Is LEVEL 2" style="rhombus;whiteSpace=wrap;html=1;rounded=1;strokeWidth=2;" vertex="1" parent="1">
          <mxGeometry x="452" y="692.5" width="80" height="80" as="geometry" />
        </mxCell>
        <mxCell id="yPlz2IjZKpGIg6lIhMgq-20" value="no" style="edgeStyle=orthogonalEdgeStyle;rounded=0;orthogonalLoop=1;jettySize=auto;html=1;" edge="1" source="yPlz2IjZKpGIg6lIhMgq-22" target="yPlz2IjZKpGIg6lIhMgq-25" parent="1">
          <mxGeometry relative="1" as="geometry" />
        </mxCell>
        <mxCell id="yPlz2IjZKpGIg6lIhMgq-21" value="" style="edgeStyle=orthogonalEdgeStyle;rounded=0;orthogonalLoop=1;jettySize=auto;html=1;" edge="1" source="yPlz2IjZKpGIg6lIhMgq-22" target="yPlz2IjZKpGIg6lIhMgq-44" parent="1">
          <mxGeometry relative="1" as="geometry" />
        </mxCell>
        <mxCell id="yPlz2IjZKpGIg6lIhMgq-22" value="Is LEVEL 3" style="rhombus;whiteSpace=wrap;html=1;rounded=1;strokeWidth=2;" vertex="1" parent="1">
          <mxGeometry x="452" y="792.5" width="80" height="80" as="geometry" />
        </mxCell>
        <mxCell id="yPlz2IjZKpGIg6lIhMgq-23" value="" style="edgeStyle=orthogonalEdgeStyle;rounded=0;orthogonalLoop=1;jettySize=auto;html=1;" edge="1" source="yPlz2IjZKpGIg6lIhMgq-56" target="yPlz2IjZKpGIg6lIhMgq-37" parent="1">
          <mxGeometry relative="1" as="geometry" />
        </mxCell>
        <mxCell id="yPlz2IjZKpGIg6lIhMgq-24" value="" style="edgeStyle=orthogonalEdgeStyle;rounded=0;orthogonalLoop=1;jettySize=auto;html=1;" edge="1" source="yPlz2IjZKpGIg6lIhMgq-25" target="yPlz2IjZKpGIg6lIhMgq-48" parent="1">
          <mxGeometry relative="1" as="geometry" />
        </mxCell>
        <mxCell id="yPlz2IjZKpGIg6lIhMgq-25" value="Is LEVEL 4" style="rhombus;whiteSpace=wrap;html=1;rounded=1;strokeWidth=2;" vertex="1" parent="1">
          <mxGeometry x="452" y="887.5" width="80" height="80" as="geometry" />
        </mxCell>
        <mxCell id="yPlz2IjZKpGIg6lIhMgq-26" value="yes" style="edgeStyle=orthogonalEdgeStyle;rounded=0;orthogonalLoop=1;jettySize=auto;html=1;" edge="1" source="yPlz2IjZKpGIg6lIhMgq-28" target="yPlz2IjZKpGIg6lIhMgq-30" parent="1">
          <mxGeometry relative="1" as="geometry" />
        </mxCell>
        <mxCell id="yPlz2IjZKpGIg6lIhMgq-27" value="" style="edgeStyle=orthogonalEdgeStyle;rounded=0;orthogonalLoop=1;jettySize=auto;html=1;" edge="1" source="yPlz2IjZKpGIg6lIhMgq-28" target="yPlz2IjZKpGIg6lIhMgq-33" parent="1">
          <mxGeometry relative="1" as="geometry" />
        </mxCell>
        <mxCell id="yPlz2IjZKpGIg6lIhMgq-28" value="is angle &amp;lt; 60" style="rhombus;whiteSpace=wrap;html=1;rounded=1;strokeWidth=2;" vertex="1" parent="1">
          <mxGeometry x="612" y="477.5" width="80" height="80" as="geometry" />
        </mxCell>
        <mxCell id="yPlz2IjZKpGIg6lIhMgq-29" style="edgeStyle=orthogonalEdgeStyle;rounded=0;orthogonalLoop=1;jettySize=auto;html=1;" edge="1" parent="1">
          <mxGeometry relative="1" as="geometry">
            <mxPoint x="812" y="677.5" as="targetPoint" />
            <mxPoint x="652" y="647.5" as="sourcePoint" />
            <Array as="points">
              <mxPoint x="652" y="677.5" />
            </Array>
          </mxGeometry>
        </mxCell>
        <mxCell id="yPlz2IjZKpGIg6lIhMgq-30" value="set rotaterow true" style="rounded=1;whiteSpace=wrap;html=1;strokeWidth=2;" vertex="1" parent="1">
          <mxGeometry x="592" y="587.5" width="120" height="60" as="geometry" />
        </mxCell>
        <mxCell id="yPlz2IjZKpGIg6lIhMgq-31" value="ys" style="edgeStyle=orthogonalEdgeStyle;rounded=0;orthogonalLoop=1;jettySize=auto;html=1;" edge="1" source="yPlz2IjZKpGIg6lIhMgq-33" target="yPlz2IjZKpGIg6lIhMgq-35" parent="1">
          <mxGeometry relative="1" as="geometry" />
        </mxCell>
        <mxCell id="yPlz2IjZKpGIg6lIhMgq-32" value="yes" style="edgeStyle=orthogonalEdgeStyle;rounded=0;orthogonalLoop=1;jettySize=auto;html=1;" edge="1" source="yPlz2IjZKpGIg6lIhMgq-33" parent="1">
          <mxGeometry relative="1" as="geometry">
            <mxPoint x="952" y="647.5" as="targetPoint" />
          </mxGeometry>
        </mxCell>
        <mxCell id="yPlz2IjZKpGIg6lIhMgq-33" value="is angle &amp;lt; 120" style="rhombus;whiteSpace=wrap;html=1;rounded=1;strokeWidth=2;" vertex="1" parent="1">
          <mxGeometry x="772" y="477.5" width="80" height="80" as="geometry" />
        </mxCell>
        <mxCell id="yPlz2IjZKpGIg6lIhMgq-34" style="edgeStyle=orthogonalEdgeStyle;rounded=0;orthogonalLoop=1;jettySize=auto;html=1;" edge="1" source="yPlz2IjZKpGIg6lIhMgq-35" parent="1">
          <mxGeometry relative="1" as="geometry">
            <mxPoint x="952" y="677.5" as="targetPoint" />
            <Array as="points">
              <mxPoint x="812" y="677.5" />
            </Array>
          </mxGeometry>
        </mxCell>
        <mxCell id="yPlz2IjZKpGIg6lIhMgq-35" value="&lt;div&gt;set rotaterow false&lt;/div&gt;&lt;div&gt;set selectedRow = 1&lt;/div&gt;" style="whiteSpace=wrap;html=1;rounded=1;strokeWidth=2;" vertex="1" parent="1">
          <mxGeometry x="752" y="587.5" width="120" height="60" as="geometry" />
        </mxCell>
        <mxCell id="yPlz2IjZKpGIg6lIhMgq-36" value="&lt;div&gt;set rotaterow false&lt;/div&gt;&lt;div&gt;set selectedRow = 2&lt;/div&gt;" style="whiteSpace=wrap;html=1;rounded=1;strokeWidth=2;" vertex="1" parent="1">
          <mxGeometry x="895" y="487.5" width="120" height="60" as="geometry" />
        </mxCell>
        <mxCell id="yPlz2IjZKpGIg6lIhMgq-37" value="pass" style="strokeWidth=2;html=1;shape=mxgraph.flowchart.terminator;whiteSpace=wrap;" vertex="1" parent="1">
          <mxGeometry x="442" y="1147.5" width="100" height="60" as="geometry" />
        </mxCell>
        <mxCell id="yPlz2IjZKpGIg6lIhMgq-38" style="edgeStyle=orthogonalEdgeStyle;rounded=0;orthogonalLoop=1;jettySize=auto;html=1;entryX=1;entryY=0.5;entryDx=0;entryDy=0;entryPerimeter=0;" edge="1" target="yPlz2IjZKpGIg6lIhMgq-37" parent="1">
          <mxGeometry relative="1" as="geometry">
            <Array as="points">
              <mxPoint x="952" y="1167.5" />
              <mxPoint x="542" y="1167.5" />
            </Array>
            <mxPoint x="952" y="647.5" as="sourcePoint" />
          </mxGeometry>
        </mxCell>
        <mxCell id="yPlz2IjZKpGIg6lIhMgq-39" value="" style="edgeStyle=orthogonalEdgeStyle;rounded=0;orthogonalLoop=1;jettySize=auto;html=1;" edge="1" source="yPlz2IjZKpGIg6lIhMgq-40" target="yPlz2IjZKpGIg6lIhMgq-42" parent="1">
          <mxGeometry relative="1" as="geometry" />
        </mxCell>
        <mxCell id="yPlz2IjZKpGIg6lIhMgq-40" value="&lt;div&gt;Scroll throught&lt;/div&gt;&lt;div&gt;to select plant&lt;/div&gt;" style="rhombus;whiteSpace=wrap;html=1;rounded=1;strokeWidth=2;" vertex="1" parent="1">
          <mxGeometry x="597" y="687.5" width="110" height="90" as="geometry" />
        </mxCell>
        <mxCell id="yPlz2IjZKpGIg6lIhMgq-41" style="edgeStyle=orthogonalEdgeStyle;rounded=0;orthogonalLoop=1;jettySize=auto;html=1;" edge="1" source="yPlz2IjZKpGIg6lIhMgq-42" parent="1">
          <mxGeometry relative="1" as="geometry">
            <mxPoint x="952" y="732.5" as="targetPoint" />
          </mxGeometry>
        </mxCell>
        <mxCell id="yPlz2IjZKpGIg6lIhMgq-42" value="highlight selected plant and set selectedPlant to it" style="whiteSpace=wrap;html=1;rounded=1;strokeWidth=2;" vertex="1" parent="1">
          <mxGeometry x="782" y="702.5" width="120" height="60" as="geometry" />
        </mxCell>
        <mxCell id="yPlz2IjZKpGIg6lIhMgq-43" value="" style="edgeStyle=orthogonalEdgeStyle;rounded=0;orthogonalLoop=1;jettySize=auto;html=1;" edge="1" source="yPlz2IjZKpGIg6lIhMgq-44" target="yPlz2IjZKpGIg6lIhMgq-46" parent="1">
          <mxGeometry relative="1" as="geometry" />
        </mxCell>
        <mxCell id="yPlz2IjZKpGIg6lIhMgq-44" value="&lt;div&gt;Scroll throught&lt;/div&gt;&lt;div&gt;to select param&lt;/div&gt;" style="rhombus;whiteSpace=wrap;html=1;rounded=1;strokeWidth=2;" vertex="1" parent="1">
          <mxGeometry x="597" y="787.5" width="110" height="90" as="geometry" />
        </mxCell>
        <mxCell id="yPlz2IjZKpGIg6lIhMgq-45" style="edgeStyle=orthogonalEdgeStyle;rounded=0;orthogonalLoop=1;jettySize=auto;html=1;" edge="1" source="yPlz2IjZKpGIg6lIhMgq-46" parent="1">
          <mxGeometry relative="1" as="geometry">
            <mxPoint x="952" y="832.5000000000001" as="targetPoint" />
          </mxGeometry>
        </mxCell>
        <mxCell id="yPlz2IjZKpGIg6lIhMgq-46" value="show selected param and its value on screen and set selectedParam to it" style="whiteSpace=wrap;html=1;rounded=1;strokeWidth=2;" vertex="1" parent="1">
          <mxGeometry x="782" y="802.5" width="120" height="60" as="geometry" />
        </mxCell>
        <mxCell id="yPlz2IjZKpGIg6lIhMgq-47" style="edgeStyle=orthogonalEdgeStyle;rounded=0;orthogonalLoop=1;jettySize=auto;html=1;" edge="1" source="yPlz2IjZKpGIg6lIhMgq-48" parent="1">
          <mxGeometry relative="1" as="geometry">
            <mxPoint x="952" y="932.5" as="targetPoint" />
          </mxGeometry>
        </mxCell>
        <mxCell id="yPlz2IjZKpGIg6lIhMgq-48" value="set the param(and show on scree) to a vlaue set controlled by angle" style="whiteSpace=wrap;html=1;rounded=1;strokeWidth=2;" vertex="1" parent="1">
          <mxGeometry x="592" y="902.5" width="120" height="60" as="geometry" />
        </mxCell>
        <mxCell id="yPlz2IjZKpGIg6lIhMgq-49" value="" style="edgeStyle=orthogonalEdgeStyle;rounded=0;orthogonalLoop=1;jettySize=auto;html=1;" edge="1" source="yPlz2IjZKpGIg6lIhMgq-13" target="yPlz2IjZKpGIg6lIhMgq-51" parent="1">
          <mxGeometry relative="1" as="geometry">
            <mxPoint x="495" y="357.5" as="sourcePoint" />
            <mxPoint x="492" y="477.5" as="targetPoint" />
          </mxGeometry>
        </mxCell>
        <mxCell id="yPlz2IjZKpGIg6lIhMgq-50" value="" style="edgeStyle=orthogonalEdgeStyle;rounded=0;orthogonalLoop=1;jettySize=auto;html=1;" edge="1" source="yPlz2IjZKpGIg6lIhMgq-51" target="yPlz2IjZKpGIg6lIhMgq-53" parent="1">
          <mxGeometry relative="1" as="geometry" />
        </mxCell>
        <mxCell id="yPlz2IjZKpGIg6lIhMgq-51" value="is LEVEL 0" style="rhombus;whiteSpace=wrap;html=1;rounded=1;strokeWidth=2;" vertex="1" parent="1">
          <mxGeometry x="452" y="377.5" width="80" height="80" as="geometry" />
        </mxCell>
        <mxCell id="yPlz2IjZKpGIg6lIhMgq-52" style="edgeStyle=orthogonalEdgeStyle;rounded=0;orthogonalLoop=1;jettySize=auto;html=1;" edge="1" source="yPlz2IjZKpGIg6lIhMgq-53" parent="1">
          <mxGeometry relative="1" as="geometry">
            <mxPoint x="1025" y="417.5" as="targetPoint" />
          </mxGeometry>
        </mxCell>
        <mxCell id="yPlz2IjZKpGIg6lIhMgq-53" value="show main display" style="rounded=1;whiteSpace=wrap;html=1;strokeWidth=2;" vertex="1" parent="1">
          <mxGeometry x="592" y="387.5" width="120" height="60" as="geometry" />
        </mxCell>
        <mxCell id="yPlz2IjZKpGIg6lIhMgq-54" value="" style="edgeStyle=orthogonalEdgeStyle;rounded=0;orthogonalLoop=1;jettySize=auto;html=1;" edge="1" source="yPlz2IjZKpGIg6lIhMgq-25" target="yPlz2IjZKpGIg6lIhMgq-56" parent="1">
          <mxGeometry relative="1" as="geometry">
            <mxPoint x="492" y="967.5" as="sourcePoint" />
            <mxPoint x="492" y="1147.5" as="targetPoint" />
          </mxGeometry>
        </mxCell>
        <mxCell id="yPlz2IjZKpGIg6lIhMgq-55" style="edgeStyle=orthogonalEdgeStyle;rounded=0;orthogonalLoop=1;jettySize=auto;html=1;entryX=0;entryY=0.5;entryDx=0;entryDy=0;" edge="1" source="yPlz2IjZKpGIg6lIhMgq-56" target="yPlz2IjZKpGIg6lIhMgq-58" parent="1">
          <mxGeometry relative="1" as="geometry" />
        </mxCell>
        <mxCell id="yPlz2IjZKpGIg6lIhMgq-56" value="Is LEVEL 4" style="rhombus;whiteSpace=wrap;html=1;rounded=1;strokeWidth=2;" vertex="1" parent="1">
          <mxGeometry x="452" y="997.5" width="80" height="80" as="geometry" />
        </mxCell>
        <mxCell id="yPlz2IjZKpGIg6lIhMgq-57" style="edgeStyle=orthogonalEdgeStyle;rounded=0;orthogonalLoop=1;jettySize=auto;html=1;" edge="1" source="yPlz2IjZKpGIg6lIhMgq-58" parent="1">
          <mxGeometry relative="1" as="geometry">
            <mxPoint x="945" y="1047.5" as="targetPoint" />
          </mxGeometry>
        </mxCell>
        <mxCell id="yPlz2IjZKpGIg6lIhMgq-58" value="Show send screen for user to double check params" style="whiteSpace=wrap;html=1;rounded=1;strokeWidth=2;" vertex="1" parent="1">
          <mxGeometry x="592" y="1017.5" width="120" height="60" as="geometry" />
        </mxCell>
      </root>
    </mxGraphModel>
  </diagram>
</mxfile>
